<?xml version="1.0" encoding="UTF-8" standalone="no"?>
<!DOCTYPE svg PUBLIC "-//W3C//DTD SVG 1.1//EN"
 "http://www.w3.org/Graphics/SVG/1.1/DTD/svg11.dtd">
<!-- Generated by graphviz version 2.43.0 (0)
 -->
<!-- Title: importcopy.process_website Pages: 1 -->
<svg width="506pt" height="113pt"
 viewBox="0.00 0.00 506.00 112.50" xmlns="http://www.w3.org/2000/svg" xmlns:xlink="http://www.w3.org/1999/xlink">
<g id="graph0" class="graph" transform="scale(1 1) rotate(0) translate(4 108.5)">
<title>importcopy.process_website</title>
<!-- Node1 -->
<g id="Node000001" class="node">
<title>Node1</title>
<g id="a_Node000001"><a xlink:title=" ">
<polygon fill="#999999" stroke="#666666" points="111,-73 0,-73 0,-43 111,-43 111,-73"/>
<text text-anchor="start" x="8" y="-61" font-family="Helvetica,sans-Serif" font-size="10.00">importcopy.process</text>
<text text-anchor="middle" x="55.5" y="-50" font-family="Helvetica,sans-Serif" font-size="10.00">_website</text>
</a>
</g>
</g>
<!-- Node2 -->
<g id="Node000002" class="node">
<title>Node2</title>
<g id="a_Node000002"><a xlink:href="namespaceimportcopy.html#ab81657dc0f9261f7c83b8b563d8de591" target="_top" xlink:title=" ">
<polygon fill="white" stroke="#666666" points="289,-104.5 178,-104.5 178,-85.5 289,-85.5 289,-104.5"/>
<text text-anchor="middle" x="233.5" y="-92.5" font-family="Helvetica,sans-Serif" font-size="10.00">importcopy.call_api</text>
</a>
</g>
</g>
<!-- Node1&#45;&gt;Node2 -->
<g id="edge1_Node000001_Node000002" class="edge">
<title>Node1&#45;&gt;Node2</title>
<g id="a_edge1_Node000001_Node000002"><a xlink:title=" ">
<path fill="none" stroke="#63b8ff" d="M111.22,-69.5C132.21,-73.92 156.16,-78.95 177.2,-83.37"/>
<polygon fill="#63b8ff" stroke="#63b8ff" points="176.76,-86.86 187.26,-85.49 178.2,-80.01 176.76,-86.86"/>
</a>
</g>
</g>
<!-- Node4 -->
<g id="Node000004" class="node">
<title>Node4</title>
<g id="a_Node000004"><a xlink:href="namespaceimportcopy.html#ac54a37f23860048922edd3b6ffd177cb" target="_top" xlink:title=" ">
<polygon fill="white" stroke="#666666" points="320,-67.5 147,-67.5 147,-48.5 320,-48.5 320,-67.5"/>
<text text-anchor="middle" x="233.5" y="-55.5" font-family="Helvetica,sans-Serif" font-size="10.00">importcopy.map_company_data</text>
</a>
</g>
</g>
<!-- Node1&#45;&gt;Node4 -->
<g id="edge3_Node000001_Node000004" class="edge">
<title>Node1&#45;&gt;Node4</title>
<g id="a_edge3_Node000001_Node000004"><a xlink:title=" ">
<path fill="none" stroke="#63b8ff" d="M111.22,-58C119.35,-58 127.91,-58 136.58,-58"/>
<polygon fill="#63b8ff" stroke="#63b8ff" points="136.79,-61.5 146.79,-58 136.79,-54.5 136.79,-61.5"/>
</a>
</g>
</g>
<!-- Node5 -->
<g id="Node000005" class="node">
<title>Node5</title>
<g id="a_Node000005"><a xlink:href="namespaceimportcopy.html#a4e0de389fecaa63edd9eab5f652689c6" target="_top" xlink:title=" ">
<polygon fill="white" stroke="#666666" points="289.5,-30 177.5,-30 177.5,0 289.5,0 289.5,-30"/>
<text text-anchor="start" x="185.5" y="-18" font-family="Helvetica,sans-Serif" font-size="10.00">importcopy.send_to</text>
<text text-anchor="middle" x="233.5" y="-7" font-family="Helvetica,sans-Serif" font-size="10.00">_server</text>
</a>
</g>
</g>
<!-- Node1&#45;&gt;Node5 -->
<g id="edge4_Node000001_Node000005" class="edge">
<title>Node1&#45;&gt;Node5</title>
<g id="a_edge4_Node000001_Node000005"><a xlink:title=" ">
<path fill="none" stroke="#63b8ff" d="M111.22,-44.63C129.01,-40.28 148.93,-35.42 167.41,-30.9"/>
<polygon fill="#63b8ff" stroke="#63b8ff" points="168.32,-34.28 177.2,-28.51 166.66,-27.48 168.32,-34.28"/>
</a>
</g>
</g>
<!-- Node3 -->
<g id="Node000003" class="node">
<title>Node3</title>
<g id="a_Node000003"><a xlink:href="namespaceimportcopy.html#a95db84408e8ab5b62aa84a6495d0b695" target="_top" xlink:title=" ">
<polygon fill="white" stroke="#666666" points="498,-104.5 356,-104.5 356,-85.5 498,-85.5 498,-104.5"/>
<text text-anchor="middle" x="427" y="-92.5" font-family="Helvetica,sans-Serif" font-size="10.00">importcopy.clean_domain</text>
</a>
</g>
</g>
<!-- Node2&#45;&gt;Node3 -->
<g id="edge2_Node000002_Node000003" class="edge">
<title>Node2&#45;&gt;Node3</title>
<g id="a_edge2_Node000002_Node000003"><a xlink:title=" ">
<path fill="none" stroke="#63b8ff" d="M289.12,-95C306.74,-95 326.65,-95 345.72,-95"/>
<polygon fill="#63b8ff" stroke="#63b8ff" points="345.9,-98.5 355.9,-95 345.9,-91.5 345.9,-98.5"/>
</a>
</g>
</g>
</g>
</svg>
