<?xml version="1.0" encoding="UTF-8" standalone="no"?>
<!DOCTYPE svg PUBLIC "-//W3C//DTD SVG 1.1//EN"
 "http://www.w3.org/Graphics/SVG/1.1/DTD/svg11.dtd">
<!-- Generated by graphviz version 2.43.0 (0)
 -->
<!-- Title: importcopy.main Pages: 1 -->
<svg width="253pt" height="51pt"
 viewBox="0.00 0.00 253.00 50.50" xmlns="http://www.w3.org/2000/svg" xmlns:xlink="http://www.w3.org/1999/xlink">
<g id="graph0" class="graph" transform="scale(1 1) rotate(0) translate(4 46.5)">
<title>importcopy.main</title>
<!-- Node1 -->
<g id="Node000001" class="node">
<title>Node1</title>
<g id="a_Node000001"><a xlink:title=" ">
<polygon fill="#999999" stroke="#666666" points="98,-24.5 0,-24.5 0,-5.5 98,-5.5 98,-24.5"/>
<text text-anchor="middle" x="49" y="-12.5" font-family="Helvetica,sans-Serif" font-size="10.00">importcopy.main</text>
</a>
</g>
</g>
<!-- Node1&#45;&gt;Node1 -->
<g id="edge5_Node000001_Node000001" class="edge">
<title>Node1&#45;&gt;Node1</title>
<g id="a_edge5_Node000001_Node000001"><a xlink:title=" ">
<path fill="none" stroke="#63b8ff" d="M27.42,-24.58C16.92,-33.23 24.12,-42.5 49,-42.5 64.94,-42.5 73.62,-38.7 75.04,-33.69"/>
<polygon fill="#63b8ff" stroke="#63b8ff" points="78.12,-32.02 70.58,-24.58 71.84,-35.1 78.12,-32.02"/>
</a>
</g>
</g>
<!-- Node2 -->
<g id="Node000002" class="node">
<title>Node2</title>
<g id="a_Node000002"><a xlink:href="$namespaceimportcopy.html#a5a2541c4fcf7f3c4d91742f684b4b6dd" xlink:title=" ">
<polygon fill="white" stroke="#666666" points="245,-30 134,-30 134,0 245,0 245,-30"/>
<text text-anchor="start" x="142" y="-18" font-family="Helvetica,sans-Serif" font-size="10.00">importcopy.process</text>
<text text-anchor="middle" x="189.5" y="-7" font-family="Helvetica,sans-Serif" font-size="10.00">_websites</text>
</a>
</g>
</g>
<!-- Node1&#45;&gt;Node2 -->
<g id="edge6_Node000001_Node000002" class="edge">
<title>Node1&#45;&gt;Node2</title>
<g id="a_edge6_Node000001_Node000002"><a xlink:title=" ">
<path fill="none" stroke="#63b8ff" d="M98.05,-15C106.36,-15 115.12,-15 123.79,-15"/>
<polygon fill="#63b8ff" stroke="#63b8ff" points="123.89,-18.5 133.89,-15 123.89,-11.5 123.89,-18.5"/>
</a>
</g>
</g>
</g>
</svg>
